<?xml version="1.0" encoding="UTF-8"?> <svg xmlns="http://www.w3.org/2000/svg" viewBox="0 0 303 101" width="303" height="101"><style> tspan { white-space:pre } .shp0 { fill: #00529b;stroke: #ffffff;paint-order:stroke fill markers;stroke-width: 4 } .shp1 { fill: #d31245;stroke: #ffffff;paint-order:stroke fill markers;stroke-width: 4 } </style><g id="Layer"><g id="Layer"><g id="Layer"><g id="Layer"><path id="Layer" class="shp0" d="M90.4,36.23l0.22,-0.76l0.18,-0.76l0.15,-0.8l0.06,-0.59l-0.06,-0.65l-0.19,-0.62l-0.3,-0.52l-0.47,-0.44l-0.49,-0.34l-0.54,-0.3l-0.57,-0.2l-0.67,-0.15l-0.73,0l-0.71,0.17l-0.68,0.32l-0.49,0.33l-1,0.78l-16.99,16.74l-0.15,0.22l-0.24,0.21l-0.24,0.11l-0.02,0l5.86,-13.26l0.07,-0.26l0.03,-0.3l-0.02,-0.29l-0.08,-0.3l-0.11,-0.24l-0.15,-0.24l-0.19,-0.21l-0.23,-0.18l-0.48,-0.22l-0.54,-0.19l-0.55,-0.1l-0.56,-0.03l-0.68,0.03l-0.77,0.27l-0.67,0.5l-0.55,0.74l-16.26,37.27l-0.25,0.61l-0.21,0.68l-0.14,0.7l-0.07,0.75l0.31,0.78l0.45,0.71l0.55,0.61l0.87,0.68l0.3,0.14l0.31,0.08l0.34,0.02l0.3,-0.05l0.31,-0.12l0.27,-0.17l0.26,-0.24l8.25,-11.82l16.59,-19.53l0.14,-0.21l0.22,-0.19l0.23,-0.1l0.14,-0.01l-11.8,38.65l-0.05,0.61l0.09,0.66l0.23,0.63l0.37,0.54l0.48,0.48l0.57,0.47l0.63,0.39l0.69,0.32l0.67,0.14l0.74,-0.13l0.68,-0.4l0.53,-0.65l0.48,-1.15l0.35,-1.18l15.77,-47.71z"></path><path id="Layer" class="shp0" d="M109.26,57.78l0.34,-0.83l0.28,-0.87l0.19,-0.91l0.11,-0.9l-0.04,-0.97l-0.19,-0.96l-0.36,-0.92l-0.5,-0.81l-0.71,-0.75l-0.84,-0.55l-0.93,-0.34l-3.23,-0.69l-1.1,-0.12l-1.16,-0.25l-0.22,-0.07l-0.03,-0.02l1.99,-1.83l2.48,-1.95l2.61,-1.75l2.8,-1.58l4.36,-2.52l1.15,-0.67l0.57,-0.38l0.6,-0.44l0.35,-0.36l0.26,-0.44l0.16,-0.56l0.01,-0.61l-0.23,-0.82l-0.37,-0.73l-0.59,-0.66l-0.64,-0.45l-0.6,-0.16l-0.57,-0.01l-0.53,0.08l-3.2,1.37l-16.86,10.18c-0.24,0.14 -0.47,0.34 -0.67,0.51l-0.87,0.73l-0.74,0.71l-1.17,1.2l-0.43,0.55l-0.36,0.6l-0.3,0.67l-0.15,0.61l-0.05,0.69l0.08,0.67l0.2,0.65l0.28,0.56l0.39,0.53l0.48,0.43l0.57,0.32l0.99,0.29l0.53,0.12l8.68,1.11l0.29,0.03l0.27,0.12l0.23,0.2l0.15,0.26l-0.02,0.32l-0.08,0.38l-0.17,0.36l-1.92,2.53l-1.12,1.39l-1.25,1.45l-1.29,1.4l-1.38,1.38l-13.03,12l-0.58,0.59l-0.54,0.75l-0.44,0.83l-0.31,0.91l-0.12,0.61l-0.09,0.68l-0.11,1.38l0.01,0.69l0.1,0.75l0.17,0.73l0.25,0.7l0.09,0.2l0.24,0.32l0.24,0.17l0.19,0.07l0.22,0.05h0.21l0.24,-0.08l0.51,-0.25l0.54,-0.31l0.51,-0.34l0.53,-0.4l13.21,-12.22l1.15,-1.1l1.23,-1.23l1.17,-1.28l1.16,-1.37l3.64,-4.51l2.71,-4.15z"></path><path id="Layer" class="shp0" d="M159.1,33.61l-0.15,-0.86l-0.06,-0.25l-0.11,-0.25l-0.16,-0.23l-0.19,-0.18l-0.18,-0.14l-0.28,-0.12l-0.25,-0.05l-0.28,0.02l-19.21,4.3l-0.46,0.13l-0.98,0.23l-0.58,0.09l-0.05,0l12.66,-22.11l0.33,-0.52l0.22,-0.63l0.06,-0.67l-0.1,-0.68l-0.31,-0.77c-0.2,-0.32 -1.27,-1.9 -2.56,-1.9c-0.36,0 -0.7,0.13 -0.97,0.36c-0.02,0.01 -0.02,0.01 -0.51,0.42l-1.04,1.13l-1.03,1.28l-15.98,26.71l-0.23,0.44l-0.28,0.44l-0.33,0.4l-0.36,0.34l-11.63,6.37l-0.46,0.32l-0.43,0.48l-0.31,0.57l-0.17,0.63l-0.06,0.71v0.77l0.06,0.78l0.14,0.76l0.09,0.37l0.23,0.41l0.33,0.32l0.48,0.22l0.83,-0.18l0.38,-0.14l3.58,-1.82l0.52,-0.3l0.58,-0.3l0.58,-0.26l0.23,-0.09l-0.25,0.89l-0.26,0.63l-0.34,0.65l-9.65,21.57l-0.3,0.59l-0.26,0.67l-0.21,0.68c-0.08,0.27 -0.11,0.54 -0.08,0.8c0.06,0.53 0.36,0.99 0.86,1.33c0.02,0.01 0.6,0.41 0.6,0.41l0.75,0.28l0.5,0.15l0.54,0.06l0.58,-0.03l0.57,-0.13l0.75,-0.34l0.72,-0.53l0.64,-0.67l0.49,-0.79l14.31,-29.75l0.26,-0.55l0.4,-0.5l0.5,-0.37l3.23,-1.3l22.42,-5.92l0.47,-0.22l0.49,-0.43l0.35,-0.56l0.19,-0.68l0.13,-0.78l0.04,-0.86z"></path><path id="Layer" class="shp0" d="M156.1,42.79l-0.35,-0.21l-1.03,-0.26l-0.68,-0.14l-0.69,-0.09l-0.71,-0.02l-0.71,0.04l-0.77,0.11l-0.75,0.19l-0.75,0.26l-0.98,0.42l-1.01,0.57l-0.95,0.68l-0.9,0.8l-14.31,14.59l-5.34,7.48l-0.42,0.72l-0.36,0.84l-0.25,0.88l-0.13,0.95l0.18,0.95l0.48,0.94l0.69,0.73l0.95,0.48l0.57,0.13l0.63,0.06l0.63,-0.05l0.61,-0.13l0.78,-0.22l0.83,-0.28l0.81,-0.34l0.81,-0.4l7.87,-4.29l0.94,-0.55l1.11,-0.51l0.07,0l0.01,0l-0.25,0.72l-0.27,0.99l-0.21,1.03l-0.14,1.08l0.13,0.96l0.41,0.98l0.68,0.8l0.88,0.55l0.59,0.11h0.54l0.57,-0.09l0.52,-0.17l2.32,-0.98l0.46,-0.17l0.47,-0.26l0.42,-0.32l0.41,-0.39l0.17,-0.22l0.14,-0.42l0.02,-0.36l-0.07,-0.34l-0.16,-0.31l-0.26,-0.26l-0.29,-0.17l-0.92,-0.17l-0.44,-0.14l-0.04,-0.44l0.02,-0.66l0.06,-0.65l0.12,-0.65l2.69,-8.83l0.07,-0.25l0.02,-0.3l-0.03,-0.29l-0.09,-0.26l-0.12,-0.25l-0.18,-0.22l-0.21,-0.18l-0.24,-0.12l-0.61,-0.22l-0.77,-0.07l-0.72,0.16l-0.7,0.37l-2.04,1.46l-9.89,5.68l-0.27,0.16l-0.29,0.14l-0.32,0.09l-0.12,0.02l15.33,-15.37l0.52,-0.39l0.61,-0.34l0.66,-0.24l0.69,-0.16l0.36,-0.04l0.4,-0.08l0.39,-0.14l0.35,-0.19l0.5,-0.45l0.44,-0.51l0.39,-0.56l0.32,-0.58l0.24,-0.36l0.19,-0.44l0.1,-0.47l0.03,-0.5l-0.2,-0.37z"></path><path id="Layer" class="shp0" d="M46.94,69.25l-0.29,-0.36l-0.43,-0.22l-0.39,-0.09l-0.42,0.02l-0.39,0.09l-11.87,3.74l-0.19,0.04l2.6,-7.1l17,-36.28l0.24,-0.47l0.38,-0.43l0.46,-0.3l0.52,-0.17l2.29,-0.5l12.8,-1.41l0.52,-0.07l0.61,-0.29l0.45,-0.37l0.42,-0.58l0.36,-0.73l0.33,-0.84l0.24,-0.87l0.2,-1.14l0,-0.28l-0.04,-0.27l-0.09,-0.27l-0.12,-0.24l-0.17,-0.22l-0.19,-0.17l-0.22,-0.14l-0.43,-0.16l-0.45,-0.11l-0.48,-0.07l-0.48,-0.02l-1.03,0.08c-0.51,0.04 -1.01,0.08 -1.52,0.11c-0.62,0.04 -1.25,0.07 -1.89,0.1c-1.48,0.07 -3.01,0.13 -4.48,0.37c-5.08,0.83 -9.95,1.98 -14.48,3.42c-3.03,0.96 -6.08,2.01 -9.04,3.03c-1.26,0.43 -2.53,0.87 -3.79,1.3c-2.48,0.84 -4.97,1.68 -7.49,2.54l-0.46,0.27l-0.46,0.46l-0.32,0.57l-0.17,0.7l-0.1,0.76l-0.05,0.85l0.01,0.85l0.09,0.87l0.08,0.36l0.15,0.34l0.21,0.32l0.26,0.28l0.26,0.18l0.33,0.16l0.34,0.08l0.37,0.01l1.03,-0.22l14.71,-5.48l0.33,-0.13l0.37,-0.1l0.38,-0.05l0.29,-0.01l-20.01,44.15l-0.14,0.43l-0.23,0.42l-0.29,0.36l-0.37,0.28l-16.27,7.78l-0.5,0.23l-0.47,0.35l-0.41,0.44l-0.33,0.52l-0.21,0.53l-0.16,0.6l-0.08,0.61l-0.01,0.62l0.06,0.56l0.11,0.6l0.17,0.55l0.24,0.55l0.25,0.47l0.43,0.45l0.56,0.27l0.65,0.06l1.81,-0.65l9.88,-5.15l25.28,-10.08l0.73,-0.24l0.71,-0.45l0.61,-0.62l0.48,-0.76l0.32,-0.75l0.28,-0.83l0.24,-0.85l0.18,-0.89l0.05,-0.4l-0.06,-0.44z"></path></g><g id="Layer"><path id="Layer" class="shp1" d="M191.56,18.02h-2.51l-0.21,0.38c-0.65,1.18 -1.07,1.66 -1.31,1.85c-0.29,0.24 -0.6,0.35 -0.96,0.35c-0.29,0 -1.07,-0.12 -2.93,-0.9c-2.72,-1.13 -4.87,-1.68 -6.58,-1.68c-3.76,0 -6.83,1.65 -9.15,4.9c-2.26,3.17 -3.41,6.98 -3.41,11.32c0,2.48 0.35,4.86 1.05,7.07c0.95,2.95 2.69,6.32 5.16,10.03c2.4,3.61 3.95,6.37 4.62,8.23c0.66,1.84 0.99,3.77 0.99,5.76c0,2.29 -0.57,4.31 -1.7,6c-1.08,1.62 -2.37,2.4 -3.94,2.4c-1.64,0 -3.06,-0.66 -4.36,-2c-1.34,-1.4 -2.39,-3.39 -3.12,-5.91c-0.75,-2.59 -1.25,-5.79 -1.48,-9.5l-0.04,-0.69h-2.37l-3.55,23.05h2.27l0.22,-0.25c0.84,-0.96 1.37,-1.37 1.66,-1.54c0.38,-0.23 0.81,-0.34 1.3,-0.34c0.49,0 1.68,0.18 4.56,1.03c2.45,0.73 4.52,1.1 6.16,1.1c2.7,0 5.16,-0.75 7.31,-2.24c2.13,-1.48 3.78,-3.59 4.89,-6.27c1.1,-2.64 1.65,-5.56 1.65,-8.67c0,-2.76 -0.4,-5.37 -1.18,-7.74c-0.78,-2.37 -2.32,-5.21 -4.56,-8.45c-2.72,-3.94 -4.46,-6.91 -5.18,-8.83c-0.71,-1.9 -1.06,-3.86 -1.06,-5.82c0,-1.93 0.5,-3.68 1.49,-5.21c0.94,-1.44 1.96,-2.15 3.13,-2.15c1.28,0 2.45,0.62 3.59,1.88c1.19,1.33 2.17,3.27 2.91,5.76c0.49,1.75 0.85,4.13 1.04,7.07l0.05,0.69h2.22z"></path><path id="Layer" class="shp1" d="M215.66,22.33l0.7,-3.02h-19.73l-0.57,2.93l0.81,0.08c2.37,0.24 3.03,0.72 3.2,0.92c0.39,0.44 0.59,1.09 0.59,1.93c0,1.09 -0.21,2.74 -0.62,4.91l-6.87,36.22c-0.84,4.34 -1.65,6.04 -2.19,6.71c-0.72,0.9 -1.87,1.33 -3.49,1.33h-0.61l-0.59,3.02h20.01l0.53,-3l-0.85,-0.03c-1.59,-0.05 -2.71,-0.37 -3.22,-0.93c-0.38,-0.41 -0.57,-1.03 -0.57,-1.83c0,-0.81 0.25,-2.49 0.73,-5l6.81,-36.22c0.64,-3.4 1.36,-5.64 2.15,-6.65c0.73,-0.93 1.78,-1.39 3.2,-1.39h0.59z"></path><path id="Layer" class="shp1" d="M251.28,51l0.58,-0.05l0.47,-3.01h-17.56l-0.53,3.06h0.88c1.17,0 1.98,0.27 2.41,0.79c0.47,0.58 0.7,1.28 0.7,2.14c0,0.73 -0.24,2.34 -0.7,4.79l-2.79,14.61c-1.09,0.62 -2.01,0.94 -2.75,0.94c-1.92,0 -3.65,-1.35 -5.15,-4.02c-1.58,-2.81 -2.38,-6.98 -2.38,-12.39c0,-6.37 0.93,-12.54 2.76,-18.33c1.82,-5.75 4.03,-10.05 6.58,-12.78c2.48,-2.66 4.96,-4 7.38,-4c2.31,0 4.06,1.02 5.35,3.13c1.34,2.2 2.1,5.92 2.24,11.05l0.02,0.72h2.4l2.79,-19.63h-2.31l-0.21,0.39c-0.56,1.06 -1.14,1.65 -1.63,1.65c-0.14,0 -0.62,-0.06 -2,-0.58c-1.76,-0.66 -2.97,-1.05 -3.7,-1.2c-0.96,-0.17 -2.01,-0.26 -3.13,-0.26c-6.4,0 -12.19,2.79 -17.2,8.3c-6.35,7.03 -9.56,16.09 -9.56,26.91c0,5.08 0.78,9.67 2.32,13.66c1.55,4.03 3.56,7.03 5.95,8.91c2.42,1.91 5.39,2.87 8.82,2.87c4.36,0 8.57,-1.16 12.52,-3.44l0.29,-0.17l3.45,-17.74c0.47,-2.68 0.71,-3.64 0.82,-3.97c0.27,-0.76 0.63,-1.34 1.06,-1.71c0.42,-0.36 1.03,-0.57 1.83,-0.64z"></path><path id="Layer" class="shp1" d="M284.94,19.31l-0.57,2.94l0.81,0.08c1.19,0.12 2,0.49 2.45,1.15c0.49,0.7 0.73,1.69 0.73,2.92c0,1.12 -0.13,2.43 -0.4,3.87l-4.69,24.47l-10.94,-35.42h-13.74l-0.59,3l0.88,0.02c1.16,0.02 2.02,0.23 2.55,0.61c0.38,0.27 1.04,0.96 2.1,2.71l-7.84,40.83c-0.44,2.3 -1.01,4.07 -1.7,5.26c-0.66,1.15 -1.33,1.92 -2.01,2.31c-0.18,0.11 -0.65,0.3 -1.83,0.3h-0.63l-0.49,3.02h13.65l0.48,-3.02h-0.87c-1.19,0 -2.01,-0.34 -2.52,-1.05c-0.56,-0.77 -0.84,-1.84 -0.84,-3.18c0,-0.98 0.12,-2.12 0.34,-3.37l6.67,-34.7l14.24,45.94h2.2l9.21,-47.46c0.65,-3.3 1.43,-5.51 2.32,-6.55c0.86,-1 1.92,-1.54 3.23,-1.67l0.56,-0.05l0.53,-2.96h-13.31z"></path></g></g></g></g></svg> 